<svg width="40" height="30" viewBox="0 0 40 30" fill="none" xmlns="http://www.w3.org/2000/svg">
<path d="M21.0938 29.5312V21.0938H26.7188L19.6875 12.6562L12.6562 21.0938H18.2812V29.5312H11.25V29.4609C11.0127 29.4741 10.7886 29.5312 10.5469 29.5312C7.74967 29.5312 5.06703 28.4201 3.08911 26.4421C1.11119 24.4642 0 21.7816 0 18.9844C0.00364603 16.4023 0.958342 13.912 2.68174 11.9892C4.40514 10.0663 6.77646 8.84577 9.34277 8.56055C9.80423 6.15415 11.0891 3.98351 12.9769 2.42138C14.8646 0.859251 17.2373 0.00311667 19.6875 0C22.1385 0.00209618 24.5122 0.857766 26.4008 2.41998C28.2895 3.9822 29.575 6.15341 30.0366 8.56055C32.6013 8.84778 34.9705 10.0692 36.6921 11.9918C38.4137 13.9145 39.3672 16.4036 39.3706 18.9844C39.3706 21.7816 38.2594 24.4642 36.2815 26.4421C34.3036 28.4201 31.6209 29.5312 28.8237 29.5312C28.5908 29.5312 28.3623 29.4741 28.1206 29.4609V29.5312H21.0938Z" fill="url(#paint0_linear_4824_15812)"/>
<defs>
<linearGradient id="paint0_linear_4824_15812" x1="19.6853" y1="0" x2="19.6853" y2="29.5312" gradientUnits="userSpaceOnUse">
<stop stop-color="#D94A1E"/>
<stop offset="1" stop-color="#FF9A3D"/>
</linearGradient>
</defs>
</svg>
